<?xml version="1.0" standalone="no"?>
<!DOCTYPE svg PUBLIC "-//W3C//DTD SVG 20010904//EN"
 "http://www.w3.org/TR/2001/REC-SVG-20010904/DTD/svg10.dtd">
<svg version="1.0" xmlns="http://www.w3.org/2000/svg"
 width="184.000000pt" height="184.000000pt" viewBox="0 0 184.000000 184.000000"
 preserveAspectRatio="xMidYMid meet">
<metadata>
Created by potrace 1.14, written by Peter Selinger 2001-2017
</metadata>
<g transform="translate(0.000000,184.000000) scale(0.100000,-0.100000)"
fill="#000000" stroke="none">
<path d="M857 1653 c-4 -3 -7 -18 -7 -32 l-1 -26 -15 28 c-17 31 -44 36 -44 8
0 -28 -17 -35 -25 -11 -3 11 -15 20 -26 20 -18 0 -17 -3 8 -55 15 -30 32 -55
39 -55 6 0 16 15 21 33 l10 32 13 -27 c16 -34 28 -35 39 -5 16 45 20 97 7 97
-7 0 -16 -3 -19 -7z"/>
<path d="M981 1608 c-26 -46 -28 -54 -13 -57 9 -2 18 2 20 8 5 16 42 13 48 -4
6 -15 34 -22 34 -8 0 24 -36 113 -46 113 -7 0 -26 -24 -43 -52z"/>
<path d="M1151 1608 c-4 -13 -12 -38 -16 -55 -5 -26 -3 -33 9 -33 14 0 37 58
37 95 1 20 -21 16 -30 -7z"/>
<path d="M587 1583 c-11 -11 -8 -123 3 -123 6 0 14 8 17 18 10 25 25 33 56 26
38 -8 34 7 -13 50 -41 36 -51 41 -63 29z"/>
<path d="M1260 1576 c0 -8 5 -16 11 -18 8 -3 7 -14 -5 -35 -19 -39 -20 -53 -3
-53 7 0 21 16 30 35 11 22 21 33 31 29 30 -11 25 17 -6 36 -39 23 -58 25 -58
6z"/>
<path d="M1400 1485 c-7 -9 -10 -26 -5 -42 5 -23 4 -26 -6 -15 -7 6 -19 12
-26 12 -22 0 7 -50 33 -56 43 -11 52 9 29 71 -6 19 -6 19 8 3 17 -22 37 -23
37 -4 0 14 -36 46 -51 46 -4 0 -12 -7 -19 -15z"/>
<path d="M805 1369 c-55 -34 -127 -78 -160 -97 -33 -20 -62 -39 -65 -43 -3 -3
-9 -8 -15 -10 -27 -11 -95 -55 -98 -64 -2 -5 0 -29 5 -52 7 -30 14 -43 26 -43
15 0 15 -2 2 -10 -9 -5 -20 -38 -26 -82 -6 -40 -22 -109 -35 -153 -27 -91 -32
-248 -11 -323 13 -45 45 -114 65 -139 62 -77 219 -213 246 -213 5 0 11 -4 13
-8 2 -5 40 -30 85 -56 78 -45 85 -47 113 -34 16 7 30 16 30 20 0 5 5 8 10 8
12 0 94 52 98 63 2 4 8 7 14 7 5 0 26 12 46 28 20 15 43 32 50 37 33 24 129
123 147 150 64 98 79 152 79 285 1 87 -4 120 -27 192 -14 48 -30 113 -33 144
-4 31 -12 61 -19 67 -10 9 -9 14 2 22 8 6 17 31 20 56 5 42 3 45 -28 62 -39
19 -72 39 -79 47 -3 3 -42 28 -88 55 -169 102 -205 124 -215 134 -21 21 -53
10 -152 -50z"/>
<path d="M317 1382 c-27 -28 -35 -52 -18 -52 6 0 13 5 16 10 4 6 18 0 37 -15
32 -27 43 -30 52 -16 4 5 -7 20 -23 34 -22 18 -28 31 -24 46 7 29 -8 26 -40
-7z"/>
<path d="M1587 1275 c-9 -20 -24 -38 -32 -41 -8 -4 -15 -12 -15 -20 0 -16 26
-19 35 -4 3 6 27 10 52 10 39 0 44 2 33 15 -7 8 -21 15 -32 15 -15 0 -17 4
-10 18 10 18 6 42 -7 42 -4 0 -15 -16 -24 -35z"/>
<path d="M226 1251 c-36 -39 5 -91 43 -56 12 10 23 16 26 13 3 -3 -1 -11 -10
-18 -19 -16 -19 -30 0 -30 20 0 47 43 39 63 -9 23 -35 29 -54 12 -22 -20 -36
-19 -20 0 21 25 -3 40 -24 16z"/>
<path d="M1616 1108 c-20 -29 -20 -41 2 -68 36 -44 102 -20 102 36 0 52 -74
75 -104 32z"/>
<path d="M156 1096 c-3 -13 -8 -31 -11 -38 -4 -10 7 -18 36 -27 22 -7 47 -15
54 -17 12 -5 35 42 35 72 0 23 -20 16 -30 -11 -12 -33 -22 -32 -18 1 4 37 -15
41 -30 7 l-11 -28 5 33 c4 24 2 32 -9 32 -8 0 -18 -11 -21 -24z"/>
<path d="M120 935 c0 -10 10 -15 28 -15 l27 -1 -27 -16 c-24 -15 -43 -41 -36
-49 2 -1 28 -4 58 -5 42 -2 55 0 55 11 0 8 -11 17 -25 21 l-25 6 28 13 c15 7
27 21 27 32 0 15 -8 18 -55 18 -42 0 -55 -3 -55 -15z"/>
<path d="M1668 943 c-22 -5 -35 -50 -21 -72 14 -23 113 -28 113 -7 0 12 -11
16 -45 16 -32 0 -45 4 -45 14 0 16 21 26 56 26 15 0 24 6 24 15 0 15 -41 19
-82 8z"/>
</g>
</svg>
